# xmcd
#
# Track frame offsets:
#	150
#	20310
#	39908
#	64724
#	81170
#	108759
#	130840
#	149987
#	163209
#	182936
#	208357
#	225489
#	270914
#
# Disc length: 3854 seconds
#
# Revision: 0
# Processed by: cddbd v1.4PL0 Copyright (c) Steve Scherf et al.
# Submitted via: audiograbber 1.82.02
#
DISCID=b50f0c0d
DTITLE=Various Artist - Great Northern Blues Society Bake Sale Volume Three (Another B
DTITLE=atch)
DYEAR=2003
DGENRE=Blues
TTITLE0=I'm your honeyboy
TTITLE1=Walk in the rain
TTITLE2=The good life
TTITLE3=I'm gonna leave this town
TTITLE4=Stop your groanin'
TTITLE5=I wanna take you home
TTITLE6=Broke and hungry
TTITLE7=Flippin' A
TTITLE8=Let the Devil drive
TTITLE9=My other woman has another man
TTITLE10=You put it out
TTITLE11=Lip Service
TTITLE12=Dark of the night
EXTD=
EXTT0=Reverend Raven Band
EXTT1=The Dave Steffen Band
EXTT2=The Dave Steffen Band
EXTT3=Howard "Guitar" Luedtke and Blue Max
EXTT4=Otis and the Alligators
EXTT5=Blue Shadows
EXTT6=Cadillac Pete and the Heat
EXTT7=Cadillac Pete and the Heat
EXTT8=The Jay Stulo Band
EXTT9=The Jay Stulo Band
EXTT10=Westside Andy - Mel Ford Band
EXTT11=Westside Andy - Mel Ford Band
EXTT12=Scott Holt Band
PLAYORDER=
